<svg width="39" height="38" viewBox="0 0 39 38" fill="none" xmlns="http://www.w3.org/2000/svg">
<g clip-path="url(#clip0_1_660)">
<path d="M8.39272 0C6.22449 0 4.62003 2.38152 4.69187 4.96422C4.7609 7.44539 4.67124 10.6592 4.02658 13.2799C3.37998 15.9082 2.2863 17.5731 0.5 17.787V20.2004C2.2863 20.4142 3.37998 22.0791 4.02658 24.7076C4.67124 27.3283 4.7609 30.5418 4.69187 33.0231C4.62003 35.6054 6.22449 37.9873 8.39302 37.9873H30.6101C32.7785 37.9873 34.3825 35.6058 34.3106 33.0231C34.2418 30.5419 34.3313 27.3283 34.9759 24.7076C35.623 22.0793 36.7137 20.414 38.5 20.2004V17.787C36.7137 17.5731 35.623 15.9082 34.9761 13.2799C34.3313 10.6596 34.2418 7.44558 34.3106 4.96422C34.3825 2.38189 32.7785 0 30.6101 0H8.39242H8.39272ZM26.2628 23.3836C26.2628 26.94 24.1491 29.0966 20.6412 29.0966H14.6695C14.4988 29.0966 14.335 29.0114 14.2142 28.8598C14.0935 28.7083 14.0256 28.5027 14.0256 28.2884V9.69894C14.0256 9.59279 14.0422 9.48766 14.0746 9.38958C14.107 9.2915 14.1544 9.20238 14.2142 9.12731C14.274 9.05223 14.345 8.99268 14.4232 8.95205C14.5013 8.91142 14.5851 8.89051 14.6697 8.89051H20.607C23.532 8.89051 25.4516 10.879 25.4516 13.9317C25.4516 16.0744 24.1602 17.9926 22.5151 18.3285V18.4404C24.7548 18.7487 26.2628 20.6951 26.2628 23.3836ZM19.9898 11.4527H16.5851V17.488H19.4529C21.6697 17.488 22.8922 16.3678 22.8922 14.3653C22.8922 12.489 21.8409 11.4527 19.9898 11.4527ZM16.5853 19.8828V26.5337H20.1154C22.4233 26.5337 23.6462 25.3715 23.6462 23.1873C23.6462 21.0026 22.3893 19.8824 19.967 19.8824H16.5853V19.8828Z" fill="#7E13F8"/>
</g>
<defs>
<clipPath id="clip0_1_660">
<rect width="38" height="38" fill="white" transform="translate(0.5)"/>
</clipPath>
</defs>
</svg>
