<svg width="39" height="38" viewBox="0 0 39 38" fill="none" xmlns="http://www.w3.org/2000/svg">
<g opacity="0.8">
<path d="M7.50868 32.3012L4.84155 2.375H34.1586L31.4879 32.2964L19.4822 35.625L7.50868 32.3012Z" fill="#1572B6"/>
<path d="M19.5 33.0814L29.2019 30.3917L31.4842 4.82243H19.5V33.0814Z" fill="#33A9DC"/>
<path d="M19.5 15.6643H24.3569L24.6917 11.9059H19.5V8.23531H28.7031L28.6153 9.21975L27.7139 19.3349H19.5V15.6643Z" fill="white"/>
<path d="M19.5226 25.1964L19.506 25.2011L15.4186 24.0968L15.1573 21.1696H11.4725L11.9867 26.9325L19.5048 29.0201L19.5226 29.0154V25.1964Z" fill="#EBEBEB"/>
<path d="M24.0446 19.1793L23.6028 24.0944L19.5095 25.1988V29.0178L27.0335 26.9325L27.0893 26.3126L27.727 19.1793H24.0446Z" fill="white"/>
<path d="M19.5131 8.23531V11.9059H10.6472L10.5735 11.0806L10.4061 9.21975L10.3182 8.23531H19.5131ZM19.5 15.6643V19.3349H15.4637L15.39 18.5096L15.2238 16.6488L15.1359 15.6643H19.5Z" fill="#EBEBEB"/>
</g>
</svg>
