<svg width="39" height="38" viewBox="0 0 39 38" fill="none" xmlns="http://www.w3.org/2000/svg">
<g clip-path="url(#clip0_49_24)">
<path d="M13 38C16.588 38 19.5 35.1627 19.5 31.6667V25.3333H13C9.412 25.3333 6.5 28.1707 6.5 31.6667C6.5 35.1627 9.412 38 13 38Z" fill="#0ACF83"/>
<path d="M6.5 19C6.5 15.504 9.412 12.6667 13 12.6667H19.5V25.3333H13C9.412 25.3333 6.5 22.496 6.5 19Z" fill="#A259FF"/>
<path d="M6.5 6.33333C6.5 2.83733 9.412 0 13 0H19.5V12.6667H13C9.412 12.6667 6.5 9.82933 6.5 6.33333Z" fill="#F24E1E"/>
<path d="M19.5 0H26C29.588 0 32.5 2.83733 32.5 6.33333C32.5 9.82933 29.588 12.6667 26 12.6667H19.5V0Z" fill="#FF7262"/>
<path d="M32.5 19C32.5 22.496 29.588 25.3333 26 25.3333C22.412 25.3333 19.5 22.496 19.5 19C19.5 15.504 22.412 12.6667 26 12.6667C29.588 12.6667 32.5 15.504 32.5 19Z" fill="#1ABCFE"/>
</g>
<defs>
<clipPath id="clip0_49_24">
<rect width="26" height="38" fill="white" transform="translate(6.5)"/>
</clipPath>
</defs>
</svg>
