<svg width="39" height="38" viewBox="0 0 39 38" fill="none" xmlns="http://www.w3.org/2000/svg">
<g clip-path="url(#clip0_1_645)">
<path d="M5.68762 30.6601L10.3649 0.730907C10.3929 0.552042 10.4764 0.386498 10.6036 0.257658C10.7308 0.128817 10.8952 0.0431914 11.0737 0.0128746C11.2522 -0.0174423 11.4357 0.00908209 11.5983 0.0887013C11.7609 0.16832 11.8944 0.29701 11.9799 0.456594L16.8172 9.47863L18.7451 5.80747C18.8184 5.66822 18.9283 5.55163 19.0631 5.4703C19.1978 5.38897 19.3522 5.34599 19.5095 5.34599C19.6669 5.34599 19.8213 5.38897 19.956 5.4703C20.0907 5.55163 20.2007 5.66822 20.274 5.80747L33.3276 30.6601H5.68762Z" fill="#FFA000"/>
<path d="M21.8462 19.0015L16.8148 9.47417L5.68762 30.6601L21.8462 19.0015Z" fill="#F57C00"/>
<path d="M33.3276 30.6601L29.7452 8.49181C29.7187 8.33555 29.6498 8.18957 29.5459 8.06988C29.442 7.95018 29.3072 7.86136 29.1562 7.81316C29.0053 7.76507 28.844 7.75941 28.6901 7.79679C28.5361 7.83418 28.3954 7.91317 28.2834 8.02512L5.68762 30.6598L18.1905 37.6714C18.5766 37.8869 19.0115 38 19.4537 38C19.8959 38 20.3308 37.8869 20.7169 37.6714L33.3276 30.6601Z" fill="#FFCA28"/>
<path d="M29.7452 8.49181C29.7187 8.33555 29.6498 8.18958 29.5459 8.06988C29.442 7.95018 29.3072 7.86136 29.1562 7.81316C29.0053 7.76503 28.844 7.75933 28.6901 7.79666C28.5362 7.83399 28.3955 7.91292 28.2834 8.02483L23.7985 12.5216L20.2719 5.80747C20.1986 5.66822 20.0887 5.55163 19.9539 5.4703C19.8192 5.38897 19.6648 5.34599 19.5075 5.34599C19.3501 5.34599 19.1957 5.38897 19.061 5.4703C18.9263 5.55163 18.8163 5.66822 18.743 5.80747L16.8151 9.47833L11.9778 0.456594C11.8922 0.29679 11.7585 0.167966 11.5956 0.0883651C11.4327 0.00876397 11.2489 -0.0175803 11.0703 0.0130628C10.8917 0.0436975 10.7273 0.129692 10.6003 0.258885C10.4733 0.388077 10.3901 0.553929 10.3625 0.732985L5.68763 30.6601H5.67249L5.68733 30.6773L5.81053 30.7378L28.2768 8.24541C28.3889 8.13287 28.5298 8.0534 28.684 8.01571C28.8383 7.97802 29 7.98358 29.1513 8.03178C29.3026 8.07997 29.4377 8.16894 29.5417 8.28891C29.6458 8.40887 29.7147 8.55519 29.741 8.7118L33.2931 30.6814L33.3276 30.6598L29.7452 8.49181ZM5.72859 30.6191L10.3646 0.944657C10.3921 0.765506 10.4753 0.599557 10.6024 0.470302C10.7295 0.341047 10.894 0.255033 11.0726 0.224438C11.2514 0.193821 11.4352 0.220209 11.5981 0.299865C11.7609 0.379521 11.8946 0.508407 11.9802 0.668266L16.8169 9.6903L18.7451 6.01914C18.8184 5.87989 18.9283 5.7633 19.0631 5.68197C19.1978 5.60064 19.3522 5.55766 19.5095 5.55766C19.6669 5.55766 19.8213 5.60064 19.956 5.68197C20.0907 5.7633 20.2007 5.87989 20.274 6.01914L23.729 12.5905L5.728 30.6191H5.72859Z" fill="white" fill-opacity="0.2"/>
<path opacity="0.2" d="M20.7169 37.4597C20.3308 37.6752 19.8959 37.7884 19.4537 37.7884C19.0115 37.7884 18.5766 37.6752 18.1905 37.4597L5.71729 30.4683L5.68701 30.6604L18.1899 37.6696C18.576 37.8851 19.0109 37.9983 19.4531 37.9983C19.8953 37.9983 20.3302 37.8851 20.7163 37.6696L33.3276 30.6604L33.2949 30.4615L20.7163 37.4603L20.7169 37.4597Z" fill="#A52714"/>
</g>
<defs>
<clipPath id="clip0_1_645">
<rect width="38" height="38" fill="white" transform="translate(0.5)"/>
</clipPath>
</defs>
</svg>
