<svg width="38" height="38" viewBox="0 0 38 38" fill="none" xmlns="http://www.w3.org/2000/svg">
<g clip-path="url(#clip0_1_664)">
<path d="M29.0938 0H8.90625C3.98746 0 0 3.98746 0 8.90625V29.0938C0 34.0125 3.98746 38 8.90625 38H29.0938C34.0125 38 38 34.0125 38 29.0938V8.90625C38 3.98746 34.0125 0 29.0938 0Z" fill="#F03C2E"/>
<mask id="mask0_1_664" style="mask-type:luminance" maskUnits="userSpaceOnUse" x="4" y="4" width="30" height="30">
<path d="M4.15625 4.15625H33.8438V33.8438H4.15625V4.15625Z" fill="white"/>
</mask>
<g mask="url(#mask0_1_664)">
<path d="M33.2834 17.678L20.322 4.7166C20.0548 4.44905 19.7141 4.26684 19.3433 4.19303C18.9724 4.11923 18.588 4.15716 18.2387 4.30202C18.0068 4.39813 17.7961 4.53901 17.6186 4.7166L14.9282 7.40703L18.3423 10.8211C19.1364 10.5428 20.0456 10.7329 20.6782 11.3657C20.9794 11.6674 21.1896 12.0478 21.285 12.4633C21.3803 12.8788 21.3568 13.3128 21.2172 13.7156L24.5079 17.0063C25.304 16.7317 26.2224 16.9088 26.8578 17.5462C27.1761 17.8644 27.3929 18.2699 27.4806 18.7113C27.5684 19.1527 27.5232 19.6103 27.3508 20.026C27.1196 20.5834 26.6766 21.0262 26.1191 21.257C25.5616 21.4878 24.9353 21.4878 24.3777 21.257C24.1017 21.1425 23.8508 20.975 23.6396 20.7636C22.9716 20.0956 22.8065 19.1122 23.1442 18.2893L20.0753 15.2203V23.2964C20.2981 23.4066 20.5016 23.5519 20.6782 23.7268C21.1049 24.1535 21.3446 24.7322 21.3446 25.3355C21.3446 25.9389 21.1049 26.5176 20.6782 26.9442C20.2516 27.3709 19.6729 27.6106 19.0695 27.6106C18.4662 27.6106 17.8875 27.3709 17.4609 26.9442C17.1424 26.6262 16.9255 26.2208 16.8376 25.7794C16.7497 25.338 16.7948 24.8805 16.9672 24.4647C17.0816 24.1887 17.2493 23.9379 17.4609 23.7268C17.6807 23.5079 17.9247 23.3418 18.2059 23.2305V15.0793C17.9269 14.9653 17.6736 14.7966 17.4609 14.5831C17.1414 14.264 16.9243 13.857 16.837 13.414C16.7498 12.971 16.7964 12.5121 16.971 12.0957L13.6034 8.7302L4.71571 17.6085C4.44815 17.8759 4.26592 18.2167 4.19207 18.5876C4.11822 18.9586 4.15607 19.3432 4.30083 19.6926C4.39703 19.9246 4.53801 20.1354 4.71571 20.3129L17.678 33.2733C17.8555 33.4509 18.0662 33.5917 18.298 33.6879C18.7665 33.8818 19.2928 33.8818 19.7613 33.6879C19.9932 33.5917 20.2039 33.4509 20.3814 33.2733L33.2834 20.3918C33.461 20.2142 33.602 20.0034 33.6981 19.7714C33.7943 19.5394 33.8438 19.2908 33.8439 19.0396C33.8439 18.7885 33.7944 18.5397 33.6982 18.3077C33.6021 18.0757 33.4611 17.8649 33.2834 17.6874" fill="white"/>
</g>
</g>
<defs>
<clipPath id="clip0_1_664">
<rect width="38" height="38" fill="white"/>
</clipPath>
</defs>
</svg>
