<svg width="38" height="38" viewBox="0 0 38 38" fill="none" xmlns="http://www.w3.org/2000/svg">
<g clip-path="url(#clip0_1_681)">
<path d="M6.07127 16.7309C4.81759 17.2397 1.49944 19.5301 0.860356 20.2088C0.196654 20.8874 7.69794e-05 19.8271 0.688276 18.0669C1.22889 16.646 2.60553 14.7161 4.91594 13.062C6.26772 12.1077 9.24196 10.7293 11.0607 9.92329C11.4295 9.75358 16.1979 8.01462 20.4502 7.14514C20.819 7.06028 20.0078 7.6753 19.8849 8.01462C19.2458 9.62635 6.48892 16.5399 6.48892 16.5399L6.07127 16.7309ZM24.0388 36.1778C24.26 37.323 24.0634 37.4078 22.687 37.5563C21.3105 37.7048 20.3027 37.2594 19.9341 36.9625C19.5653 36.6655 19.4917 36.0082 19.8604 35.4144C20.0817 35.0326 20.3029 34.9054 20.4258 34.4389C20.5487 33.9935 20.647 33.8874 20.7453 33.7178C20.8435 33.5693 20.8682 33.4208 20.8927 32.3817C20.9173 31.3426 20.8927 29.3915 21.0157 28.5645C21.1386 27.7162 25.3909 28.9462 25.3909 28.9462C25.3909 28.9462 24.3831 31.1093 24.1128 31.6395C23.8423 32.1697 23.8669 33.1876 23.8669 33.3997C23.8669 33.6117 23.7687 34.0358 23.6949 34.0571C23.6211 34.0782 23.9407 34.6296 23.7931 34.9478C23.6947 35.2447 24.0143 36.0082 24.0388 36.1778ZM25.6611 3.75197C25.5135 2.9461 25.6611 1.35541 25.8577 1.10105C26.4723 0.379936 29.7167 0.295185 30.405 1.14343C30.6999 1.52512 30.6753 2.41584 30.6262 2.98848C30.5771 3.56102 30.405 4.79106 30.3804 5.19409C30.3559 5.49103 26.7918 5.95748 26.0053 5.15161C25.784 4.93963 25.6611 3.75197 25.6611 3.75197ZM32.8875 34.1207C34.3869 35.0539 35.5421 35.2235 36.304 35.5628C37.0659 35.9022 36.8694 36.5596 35.5912 36.7505C34.5588 36.9201 32.9366 36.5807 31.8552 36.5807C30.7737 36.5807 28.3648 36.6868 27.7257 36.3051C26.9884 35.8598 27.3078 35.0326 27.3078 35.0326C27.5045 34.5662 27.996 33.5269 27.8486 32.6786C27.7011 31.8304 27.5044 31.3639 27.1357 30.5791C26.7671 29.7945 26.4968 27.8647 26.8409 27.7586C27.1851 27.6525 27.0866 27.7586 27.5291 27.8434C27.9715 27.9281 28.4632 28.0554 29.4218 28.0554C30.3804 28.0554 31.4373 27.9281 31.806 27.8646C32.1747 27.801 32.4696 27.7373 32.3467 28.3948C32.2238 29.0522 31.8552 30.2822 31.8305 31.2365C31.806 32.1909 31.806 33.2937 31.8798 33.4845C31.9534 33.6754 32.4942 33.8874 32.8875 34.1207Z" fill="#010101"/>
<path d="M27.6273 5.87274C24.9236 7.8875 19.6881 8.4388 11.9211 11.0261C9.93008 11.6835 4.62094 13.6558 3.34277 15.7129C7.64417 13.571 9.24188 16.5188 9.58592 19.5514C9.90535 22.3932 11.5523 23.8778 15.78 23.7928C20.1306 23.7081 21.4579 25.8923 22.6622 28.4585C24.9972 18.6394 28.7334 16.7309 31.142 15.0555C36.2547 11.4714 29.9623 5.15162 27.6273 5.87274Z" fill="#8AC640"/>
<path d="M27.6275 5.87274C21.1385 7.82379 14.7232 8.31157 7.17735 12.3198C5.38306 13.2741 1.59779 15.4371 0.860352 19.5726C3.61315 16.9429 9.97927 13.6347 17.771 11.5351C21.7038 10.4747 24.5796 9.77494 28.0699 8.60852C27.8242 7.25114 27.8242 6.72098 27.6275 5.87274Z" fill="#8AC640"/>
<path d="M35.9106 17.4943C35.9106 17.4943 35.4436 18.8728 34.5096 19.3182C34.5096 19.3182 33.8214 19.5303 32.445 18.8729C32.0517 18.682 31.7568 18.0246 31.7813 17.8124C31.8059 17.3034 32.1746 17.0702 32.1746 17.0702C32.1746 17.0702 32.568 16.4975 33.0348 16.5188C33.502 16.5399 34.2885 16.6035 34.5343 16.4127C34.7554 16.2006 35.9598 16.7944 35.9106 17.4943ZM25.8822 4.15491C25.8822 4.15491 25.784 5.23658 25.6119 5.91511C25.5873 6.04245 24.8499 6.10596 24.3091 6.29691C25.3414 8.84173 31.5601 8.82049 32.3713 7.56932C31.978 7.3361 31.1914 6.97554 30.8228 6.84831C30.454 6.72098 30.4786 6.74222 30.454 6.14844C30.4295 5.55455 30.3803 4.45185 30.331 4.15491C30.2819 3.85797 26.472 3.85797 25.8822 4.15491Z" fill="#010101"/>
<path d="M26.128 4.15491C26.128 4.15491 26.128 4.76993 26.0543 5.36371C26.0298 5.63941 26.0052 5.80902 25.9561 6.02111C25.9315 6.14844 26.7917 6.65726 27.0376 7.78131C28.2174 10.0504 30.9458 8.92649 32.0764 7.84492C31.6831 7.61159 31.044 7.29352 30.3067 7.03906C29.9379 6.91172 30.11 6.63612 30.0855 6.04235C30.0609 5.44857 29.9626 4.57898 29.9134 4.26091C29.8641 3.94283 26.718 3.85797 26.128 4.15491Z" fill="#F0EFEF"/>
<path d="M25.8824 4.15492C25.8824 4.15492 25.8578 4.53672 25.7842 4.98202C26.1036 5.25762 26.5215 5.63942 26.8412 5.87274C27.0624 6.04245 27.603 6.02121 28.0947 6.02121C28.5371 6.02121 28.9304 6.06359 29.1025 5.97884C29.4958 5.80913 30.0611 5.38506 30.3806 5.06688C30.3561 4.68519 30.3315 4.32463 30.307 4.15492C30.2822 3.85798 26.4723 3.85798 25.8824 4.15492Z" fill="#010101"/>
<path d="M28.1191 5.76664C27.8241 5.76664 27.4799 5.74551 27.2096 5.70303C27.0866 5.68189 26.9638 5.61828 26.8654 5.5758C26.6934 5.4697 26.5213 5.34257 26.3248 5.21524C25.9314 4.96078 25.9069 4.81231 25.9069 4.7488C26.079 3.41266 25.8577 2.28872 25.8577 2.28872C25.8577 2.28872 25.6856 1.71608 26.6196 1.56761C27.5536 1.41914 28.119 1.398 28.119 1.398C28.119 1.398 28.709 1.398 29.6184 1.56761C30.5524 1.71608 30.3803 2.28872 30.3803 2.28872C30.3803 2.28872 30.1591 3.41266 30.3312 4.7488C30.3312 4.81231 30.3067 4.96078 29.9133 5.21524C29.5691 5.42733 29.2988 5.66055 29.0285 5.70303C28.7581 5.74551 28.4139 5.76664 28.1191 5.76664Z" fill="#010101"/>
<path d="M28.1191 0.846603C26.4969 0.846603 26.1773 1.2283 25.7103 1.65247C25.612 1.75846 25.6856 2.39472 25.8578 3.75198H26.079C26.079 3.75198 25.9315 3.37019 25.9561 2.92488C25.9807 2.47957 26.079 2.50081 26.0052 2.39472C25.907 2.26738 25.7103 2.0553 26.1528 1.84331C26.5952 1.63123 27.2834 2.01292 28.1191 2.03416C28.9548 2.01292 29.6676 1.63123 30.11 1.84331C30.5524 2.0553 30.3558 2.26738 30.2576 2.39472C30.1592 2.52195 30.2821 2.47947 30.3067 2.92488C30.3312 3.37019 30.1837 3.75198 30.1837 3.75198H30.4049C30.5524 2.39472 30.6507 1.80094 30.577 1.69484C30.1591 1.2283 29.7414 0.867739 28.1191 0.846603ZM35.9108 17.5579C35.9108 17.5579 35.4438 18.8515 34.5344 19.2968C34.3377 19.2121 34.3623 19.0849 34.1902 18.8939C34.141 18.8304 33.9689 18.7878 33.8953 18.7243C33.8216 18.6607 33.8462 18.5546 33.7232 18.4698C33.6249 18.385 33.5511 18.4486 33.4528 18.385C33.3545 18.3002 33.3298 18.1941 33.2562 18.1306C33.207 18.0881 33.0104 18.067 32.9613 18.0245C32.8383 17.9184 31.757 17.7276 31.8061 17.5155C31.9043 17.1973 32.101 16.9641 32.101 16.9641C32.101 16.9641 32.568 16.3703 33.0349 16.3915C33.5019 16.4127 33.9444 16.4976 34.1902 16.3067C34.4606 16.0945 35.9846 16.8792 35.9108 17.5579Z" fill="#010101"/>
<path d="M32.7155 8.18434C32.7155 8.18434 34.264 7.86616 35.321 8.73574C36.378 9.62646 36.3041 10.7292 35.9847 11.4078C36.255 11.6835 36.7466 12.4469 36.378 13.3588C38.0002 14.5464 37.2874 16.3703 35.8372 17.5791C35.8372 17.5791 35.4931 16.4763 34.1167 16.4127C34.1658 15.9886 32.8385 15.6492 33.453 14.5464C32.5189 14.3556 32.5436 13.8042 32.3961 13.1256C32.2731 12.4469 32.7155 8.18434 32.7155 8.18434Z" fill="#010101"/>
<path d="M32.15 8.77812C32.15 8.77812 33.9443 7.9935 35.0013 8.88422C36.0582 9.77494 35.7631 10.7504 35.4437 11.429C35.714 11.7046 36.3531 12.4895 35.9598 13.4225C35.8861 13.6345 35.3453 13.6345 34.952 14.186C35.9351 13.6981 36.5497 13.8254 36.7709 14.4403C37.115 15.3946 36.353 16.5398 35.6894 17.1761C35.6894 17.1548 35.6648 17.1336 35.6648 17.1125C35.5665 17.4307 35.4436 18.0456 34.7063 18.7242C34.3375 19.0635 34.0426 19.0211 33.6247 18.9363C33.1332 18.8302 32.9611 18.6392 32.2729 18.3213C31.8796 18.1304 32.1008 17.8971 32.1008 17.7062C32.1008 17.6639 32.1499 17.6002 32.2238 17.5154C32.2729 17.4093 32.4203 17.2398 32.6415 17.0489C32.6415 17.0489 32.9611 16.6672 33.4282 16.6883C33.8952 16.7095 34.3867 16.6248 34.5097 16.5187C34.5097 15.7764 33.5266 15.7552 33.8706 14.4828C33.8952 14.4192 34.0182 14.3131 34.4113 14.2707C33.8214 14.1646 33.5511 14.1434 33.1332 13.8042C32.8382 13.5709 32.617 13.274 32.5432 12.8923C32.3959 12.2349 32.15 8.77812 32.15 8.77812Z" fill="#F0EFEF"/>
<path d="M26.9637 7.44209C26.8162 7.27238 26.0543 6.42414 24.6041 6.08482C24.1862 5.97873 23.9159 6.27567 23.4981 6.48776C23.3751 6.42414 22.8344 6.21206 22.5395 6.36042C22.2445 6.50879 22.048 6.65736 21.7529 6.76335C21.6053 6.69974 21.2122 6.69974 20.8926 6.80573C20.5731 6.89059 20.0815 7.08143 19.6145 7.63283C19.3195 8.54479 24.8253 7.86606 24.8253 7.86606L26.9637 7.44209Z" fill="#010101"/>
<path d="M27.013 7.44209C26.2264 7.20877 26.3493 6.42414 24.6042 6.29691C24.26 6.27567 24.0388 6.50889 23.793 6.65736C23.916 6.76346 24.0388 6.93306 24.1125 7.10267C23.8913 6.89069 23.4981 6.61488 23.1047 6.55127C22.736 6.48776 22.4902 6.72098 22.0969 6.89069C22.1705 6.9542 22.2444 7.0603 22.3426 7.18763C21.9985 6.99678 21.7528 6.93317 21.2858 7.08154C20.9662 7.16629 20.3518 7.39961 19.8848 7.97225C19.5898 8.88421 24.8499 7.86616 24.8499 7.86616L27.013 7.44209Z" fill="#8AC640"/>
<path d="M31.6338 7.78141C31.6338 7.78141 31.6338 7.54808 31.6092 7.3361C31.6092 7.29372 31.4126 7.18763 31.4126 7.14525L31.3635 7.10277C31.3635 7.10277 31.7568 6.91193 32.0517 7.01802C32.3711 7.10277 32.5432 7.46333 32.5432 7.46333C33.1086 7.29372 33.1577 7.48457 33.4281 7.73903C34.0181 7.63293 34.0917 7.82378 34.4605 8.29043C34.4605 8.29043 34.0181 8.22682 33.1578 8.35394C32.322 8.45994 31.6338 7.76017 31.6338 7.78141Z" fill="#010101"/>
<path d="M31.5355 7.67531C31.5355 7.67531 31.6829 7.56922 31.6337 7.54798C31.904 7.42075 32.2728 7.27238 32.4449 7.67531C33.0102 7.5056 33.0839 7.73893 33.3542 7.9935C34.0424 7.71779 34.0916 8.05701 34.1408 8.20548C33.9196 8.20548 33.6002 8.22672 33.1577 8.26909C32.322 8.37519 31.5108 7.65407 31.5355 7.67531Z" fill="#8AC640"/>
<path d="M23.1786 7.14515C23.1786 7.14515 24.5796 7.56922 25.7594 7.5056C26.9393 7.42085 28.9547 7.336 30.0362 7.8874C30.0362 7.8874 31.1423 7.54798 32.1747 7.7813C33.2072 8.01453 35.0997 9.5415 34.5344 11.1532C34.4852 11.2593 34.1657 11.4289 33.797 11.535C33.797 11.535 33.9937 12.256 33.6495 12.8498C33.3054 13.4225 32.5434 14.5253 32.5188 16.0521C32.4943 16.3066 32.4452 16.8368 32.396 17.0912C30.4787 17.0277 27.5292 16.4126 24.6289 16.4551C24.6534 16.1795 24.678 16.0098 24.7026 15.7341H24.7762C24.6287 15.0342 24.5796 14.6736 24.432 14.1435C23.498 13.6345 22.5148 13.0408 21.6792 11.9167C20.8681 10.7927 23.1786 7.14515 23.1786 7.14515ZM32.6663 18.5971C32.6663 18.5971 34.1903 23.3051 32.396 25.2774C32.396 25.2774 32.6663 26.1893 32.0518 27.1648C31.9535 27.5889 31.8305 27.9707 31.7569 28.3948C31.4374 30.155 30.8965 30.8972 30.749 33.7177L29.2742 33.6966C29.2742 33.6966 29.1021 31.6607 28.586 30.5791C28.2912 29.9642 27.1357 29.137 27.1851 28.31C27.2342 27.6738 27.3817 27.1436 28.6353 26.2953C28.7336 25.0653 27.3079 23.8988 27.5292 19.3181L32.6663 18.5971Z" fill="#010101"/>
<path d="M32.2238 18.4061C32.617 20.5692 33.5264 23.7716 31.8796 25.3408C31.9768 25.7387 31.9851 26.149 31.9041 26.5496C31.855 26.8041 31.7566 27.0798 31.6338 27.3766C31.388 27.8856 31.2896 28.6279 31.2159 29.0732C30.8964 30.8334 30.8964 30.9184 30.7489 33.7389L29.274 33.7176C29.274 33.7176 29.102 31.6817 28.5858 30.6003C28.291 29.9853 27.6764 29.4551 27.6273 28.628C27.5782 27.9918 28.0943 26.7194 29.3234 26.7618C29.2497 24.1957 27.8731 24.7047 27.5045 19.3605L32.2238 18.4061ZM23.1785 7.14515C23.1785 7.14515 23.7192 7.29362 24.3091 7.336C24.899 7.37837 25.5381 7.336 26.1033 7.31476C27.2832 7.23 28.9546 7.12391 30.0607 7.67531C30.0607 7.67531 30.6752 7.5056 31.3389 7.54798C31.6338 7.56922 31.9288 7.7813 32.2729 7.86616C33.3544 8.09938 34.3867 9.64749 33.9196 11.0472C33.8705 11.1533 33.5263 11.0472 33.133 11.1533C33.2067 11.4503 33.256 12.1289 32.8626 12.8499C32.4448 13.571 31.9041 14.5041 32.0023 16.2856C29.4215 16.1795 28.2663 16.0311 25.71 15.925C25.4888 15.1403 25.3412 14.3557 25.3167 13.9527C25.6608 13.8043 25.8573 13.6771 26.1278 13.4226C25.3905 13.5287 25.0955 13.4862 24.653 13.2741C24.2106 13.062 23.424 12.3834 23.0308 11.9381C22.9817 11.8956 22.7113 12.5954 22.0969 12.6167C21.8756 12.341 22.8096 11.5563 22.6375 11.2594C22.0231 10.1778 23.1785 7.14515 23.1785 7.14515Z" fill="#F0EFEF"/>
<path d="M32.4204 16.6459C32.4204 16.6459 32.4695 17.4094 32.4695 17.6003C32.4695 17.8123 32.6662 18.4485 32.6907 18.7454C32.4204 19.1484 31.2406 20.0603 29.1021 20.3996C26.9883 20.7813 24.1863 17.9184 24.1863 17.9184C24.26 17.6427 24.5058 16.8368 24.6779 16.4127C24.7025 16.3703 24.7516 16.2642 24.7516 16.2219C24.9729 15.9461 32.4204 16.6459 32.4204 16.6459Z" fill="#010101"/>
<path d="M31.8796 16.7096C31.8796 17.2398 31.9778 17.6216 32.0517 17.9609C32.1745 18.5759 32.3711 18.9789 32.3711 19.3818C32.3711 20.6117 30.5031 20.3996 28.9299 20.4421C26.816 20.8239 25.0217 17.9609 25.0217 17.9609C25.1692 17.4731 25.2675 16.9218 25.4887 16.4552C25.5132 16.2007 25.5625 15.8826 25.587 15.7342C28.5857 15.7342 30.6995 15.8826 31.9286 15.9885C31.9778 16.2218 31.9287 16.6248 31.8796 16.7096Z" fill="#F0EFEF"/>
<path d="M29.52 19.4453C29.52 19.4453 28.2173 16.9429 24.3091 17.6852C23.3752 19.9543 22.1215 22.5629 22.9327 25.3834C22.1215 26.3377 21.1875 26.868 21.1875 28.6281C21.1875 30.3883 21.2858 30.6852 21.2858 30.6852L24.1616 30.8126C24.1616 30.8126 25.0956 29.7735 25.4643 28.6494C25.5626 28.3313 25.661 27.7587 25.5872 27.1013C25.6855 26.9741 26.1034 26.6773 26.1526 26.1046C26.1526 26.1046 27.5536 25.4685 28.3648 23.9204C29.1268 22.5204 28.9301 21.3116 29.52 19.4453Z" fill="#010101"/>
<path d="M29.5198 19.4453C29.4462 19.2121 28.463 16.9217 24.8252 17.6003C22.6868 22.5204 23.4734 24.5563 23.7928 25.4469C22.3426 27.0374 21.679 27.3767 21.974 30.6003H23.8913C24.7761 29.3915 24.9728 28.9461 25.0219 27.3556C25.0219 27.292 24.7516 27.4828 24.5549 27.6949C24.7024 27.0375 25.1202 26.9103 25.4398 26.5073C25.5872 26.3376 25.7101 26.0832 25.7101 25.7439C27.4306 24.7471 28.0697 23.4959 28.4384 22.2022C28.7334 21.3116 29.0775 19.8482 29.5198 19.4453Z" fill="#F0EFEF"/>
<path d="M23.4486 16.031C23.4486 16.031 24.1124 16.0521 24.7023 16.2218C25.2677 16.3915 25.2677 16.4974 25.4889 16.7096C25.7101 16.9218 26.2508 17.2398 26.1526 17.5579C26.1033 17.7276 25.9805 17.77 25.8084 17.9184C25.7347 17.982 25.1938 18.491 25.071 18.5546C24.9972 18.597 24.8989 18.6607 24.8252 18.7031L24.4565 18.9151C24.2107 19.0212 24.0386 19.0849 23.7683 19.0636C23.7683 19.0636 23.1538 19.0424 22.7605 18.6819C22.7605 18.6819 22.7113 18.5122 22.8097 18.4275C22.8097 18.4275 22.2934 18.0457 22.146 17.7912C21.9984 17.5368 21.9984 17.1763 22.0969 16.9854C22.146 16.7944 23.1045 16.2642 23.4486 16.031ZM24.0632 36.6656L23.9895 37.1959C23.9895 37.1959 23.7683 37.4291 22.1215 37.408C20.45 37.3867 20.0077 36.9414 19.8602 36.7081L19.762 36.1567C19.762 36.1567 20.0815 35.7538 20.1552 35.7538C20.696 35.7961 22.5395 36.4324 23.8177 36.602C23.9403 36.602 23.9648 36.6444 24.0632 36.6656ZM27.6272 35.584C27.6272 35.8173 27.6026 35.8173 27.6026 36.0506C27.8975 36.2414 28.6351 36.3475 30.036 36.3262C32.0761 36.2838 33.9687 36.8565 36.2791 36.517L36.3037 36.1353L36.0825 36.1142L27.8975 35.5416L27.6272 35.584Z" fill="#010101"/>
<path d="M29.4216 36.3263H30.0361C31.3635 36.2839 32.617 36.5384 33.9688 36.602C34.6816 36.5808 35.5665 36.4323 35.4928 35.987L28.5122 35.478C28.0943 35.8809 28.4137 36.2202 29.4216 36.3263ZM21.4086 27.3981C21.6298 27.5253 23.1292 28.2888 25.5626 28.1827C25.5133 28.5856 25.538 29.3703 24.4565 30.7488C23.9157 31.4274 23.4486 32.615 23.3504 34.1208C23.375 34.4601 23.5962 34.7569 23.3013 35.2024C23.3995 35.4779 23.7928 36.0294 23.9895 36.3687C24.1861 36.7081 24.2844 37.0898 22.9816 37.111C21.6543 37.1322 19.5159 37.0049 19.8109 36.1143C19.9585 35.6478 20.3763 35.16 20.4255 34.969C20.4746 34.7782 20.4746 34.2056 20.8924 33.8238C21.2612 32.7635 21.1382 31.7456 21.0646 30.7912C20.9416 29.7944 20.917 28.2039 21.4086 27.3981ZM23.6946 10.1141C25.4397 8.09938 23.9649 6.48775 21.1629 6.97544C20.0322 7.16628 18.9017 7.84502 18.8278 9.07495C18.4591 9.11733 17.6235 9.1597 17.2056 10.4746C16.8862 11.4925 16.7141 11.6834 16.1486 12.1923C15.78 12.5529 16.1732 13.2951 16.4435 13.8254C17.3531 15.6492 20.1551 15.8188 22.0477 17.1973C22.6868 17.0488 23.3504 16.4339 23.5471 16.031C21.9494 14.3979 22.2934 13.7618 21.6543 12.9135C22.3427 12.7013 23.9157 11.8743 23.6946 10.1141Z" fill="#010101"/>
<path d="M23.3505 9.98691C23.4487 9.85958 23.6208 9.58398 23.6946 9.47788C23.7193 9.45664 23.9896 9.85958 24.0142 9.83844C24.6778 8.90524 24.8498 7.54798 24.0878 7.42074C23.9157 7.3995 23.5963 7.33599 23.3259 7.25103C22.8344 7.10256 22.392 7.10256 21.6053 7.2299C20.5238 7.3995 19.4424 8.07814 19.4424 9.05371C19.4424 9.11733 20.2042 9.30817 20.4255 10.0929C20.0567 9.64749 19.4176 9.1597 18.6557 9.58388C17.8445 10.0292 18.2624 11.0471 17.1809 12.1075C16.8122 12.468 16.8614 12.8922 17.2546 13.7404C17.8936 15.0766 20.917 15.7976 22.5638 17.07C22.9571 16.9215 23.2274 16.5822 23.4241 16.3277C22.318 15.331 21.8755 14.3978 21.5561 13.7192C21.1628 12.9346 20.7203 12.4893 19.86 11.8953C20.3025 12.0437 20.6467 12.1922 20.8431 12.3194C21.0643 12.4467 21.3839 12.4679 21.6789 12.3831C22.736 12.0652 23.3014 10.7927 23.3505 9.98691Z" fill="#F0EFEF"/>
<path d="M34.0427 10.3262C33.9689 11.1321 33.2807 10.7292 32.9121 10.5807C32.1746 10.305 31.4372 10.1141 30.5769 10.1141C29.7167 10.1141 28.6106 10.1778 27.6521 10.3898C26.3248 10.7079 25.9314 10.6868 25.3415 10.4322C24.7517 10.1565 23.7194 9.47789 23.7194 9.47789C23.7194 9.47789 23.6948 9.68998 23.9406 9.96568C24.2601 10.305 24.973 10.7292 25.9315 11.0048C26.3985 11.1321 26.7673 11.0471 27.1852 10.9624C29.3727 10.4958 31.6831 10.411 33.6249 11.4289C33.7232 11.4713 34.0674 11.3441 34.2149 11.1532C34.4113 10.8776 34.0427 10.3262 34.0427 10.3262Z" fill="#010101"/>
<path d="M22.8589 18.4061C23.0555 18.5122 23.3013 18.5758 23.5716 18.7667C23.5716 18.7667 23.3504 18.7667 23.2522 18.6819C23.1292 18.6183 22.8834 18.4275 22.8589 18.4061Z" fill="#0A1825"/>
<path d="M29.9623 1.58885C29.8886 1.39801 29.3477 1.05859 28.0943 1.05859C26.7424 1.05859 26.3491 1.41914 26.3246 1.60999C26.3246 1.6736 26.2263 2.35234 26.2017 2.62794C26.2017 2.62794 26.2017 2.96726 26.2262 3.47618C26.2508 3.8155 26.3491 4.00634 26.3982 4.45175C26.4474 4.9182 26.5949 5.21514 26.8652 5.59694C26.9882 5.66045 27.0864 5.72417 27.2094 5.74541C27.701 5.83016 28.5613 5.8514 29.0283 5.74541C29.2986 5.68179 29.6428 5.27886 29.7165 4.9183C29.8147 4.47299 29.9131 4.15481 29.9377 3.87922C29.9868 3.60362 30.0114 2.9885 30.0359 2.81879C30.1098 2.35234 29.9868 1.63123 29.9623 1.58885Z" fill="#F0EFEF"/>
<path d="M27.3815 27.801C27.3815 27.801 28.6843 28.2888 31.9042 27.8646C31.9042 27.8646 30.9948 31.8092 31.4127 33.7814C31.4127 33.7814 31.8305 34.2904 34.9276 35.2659C34.9276 35.2659 36.304 35.5628 36.2549 36.1567C36.2549 36.1567 36.304 36.2839 34.6327 36.2414C32.9613 36.199 31.3881 35.9445 30.282 35.9445C29.1759 35.9445 27.9961 35.9869 27.7995 35.7113C27.5783 35.4568 27.8487 34.7993 28.1682 34.4175C28.5125 34.0147 28.414 33.7176 28.3895 32.9967C28.3155 31.1093 26.6441 29.1583 27.3815 27.801Z" fill="#010101"/>
<path d="M27.1112 28.1616C26.9391 28.3736 27.1357 29.1794 27.3815 29.9641C27.6273 30.7488 28.1682 31.2154 28.291 32.509C28.4139 33.7814 28.4385 33.9511 28.0206 34.6932C27.6027 35.4354 27.4799 36.1141 28.93 36.1353C30.3801 36.1566 31.1668 36.1141 32.6416 36.3051C34.1164 36.4959 34.6325 36.5595 35.4437 36.4535C36.2549 36.3475 36.4268 36.1141 36.0828 35.9021C35.7386 35.69 34.313 35.4568 33.6985 35.0325C33.1086 34.6508 31.4372 34.0146 31.4127 33.845C31.339 33.2723 31.3144 31.1941 31.4372 30.5154C31.5602 29.8367 31.7322 28.8612 31.7814 28.6068C31.8306 28.3523 32.0763 28.0977 31.6584 28.1826C31.2407 28.2673 29.6676 28.4583 28.4877 28.3947C27.3079 28.3312 27.1851 28.0978 27.1112 28.1616Z" fill="#8AC640"/>
<path opacity="0.3" d="M27.9469 34.7146C28.3647 34.8842 28.9793 35.0115 29.4463 35.0115C29.4463 35.0115 29.2741 35.7114 29.5445 36.1355C29.8148 36.5596 27.5781 36.3052 27.5781 36.3052L27.4799 34.7994L27.9469 34.7146ZM34.4605 36.5384C34.8538 36.4323 35.1242 36.0506 34.8046 35.6901C34.4605 35.3296 34.1656 35.266 34.608 35.2448C35.0505 35.2236 36.6727 36.0718 36.6727 36.0718L35.8369 36.7292L34.4605 36.5384ZM27.0374 28.9886C27.6028 29.1583 28.463 29.2006 29.2005 29.1794C29.9378 29.1583 31.0439 29.0733 31.7568 28.8613C32.4695 28.6492 32.1746 29.0945 32.1746 29.0945L31.7813 29.4127C31.7813 29.4127 30.8473 29.7308 29.3234 29.7097C27.5291 29.6884 26.9883 29.5188 26.9883 29.5188L27.0374 28.9886ZM27.0865 30.049C27.652 30.2187 28.5121 30.2611 29.2496 30.2398C29.9869 30.2187 30.9701 30.2187 31.683 29.9854C31.9779 29.9006 31.8059 30.2611 31.8059 30.2611L31.683 30.4519C31.683 30.4519 30.7243 30.7489 29.225 30.7275C27.4307 30.7064 27.1111 30.579 27.1111 30.579L27.0865 30.049Z" fill="#010101"/>
<path d="M25.4644 15.1828C25.4644 15.3312 27.3816 16.1582 28.4385 16.3279C29.4954 16.4975 31.7076 16.3279 32.0517 16.2643L32.0024 16.5613C32.0024 16.5613 29.3725 16.9006 27.357 16.434C25.3414 15.9675 25.5627 15.8614 25.5627 15.8614L25.4644 15.1828Z" fill="#010101"/>
<path d="M21.3595 33.2724C21.6545 33.3998 22.7114 33.633 23.3996 33.5058C23.4979 33.4845 23.3996 32.0424 23.6701 31.385C24.0633 30.4731 24.7024 29.7308 24.9972 28.1192C23.9649 28.0343 22.7852 27.801 22.1706 27.6313C21.3842 29.7097 21.6546 31.491 21.3595 33.2724ZM23.0065 34.6086C23.1786 34.6509 23.3014 34.8206 23.3507 34.7147C23.4489 34.5237 23.1786 34.1633 23.154 33.9088V33.8876C22.9328 33.718 21.4334 33.6967 21.5317 33.7815C21.3597 34.0572 21.0894 34.0148 20.9911 34.5662C20.942 34.8418 21.3353 34.6086 21.7038 34.5873C21.0402 34.969 20.2783 35.4569 20.1553 35.881C20.0079 36.4748 20.2537 36.6445 20.9911 36.9627C21.6302 37.0899 22.3921 37.1111 22.982 37.0899C23.6457 36.9838 23.7687 36.7082 23.572 36.3264C23.2768 35.7538 23.0802 35.0115 23.0065 34.6086Z" fill="#F0EFEF"/>
<path d="M23.2768 7.0603C24.088 7.46323 25.2187 7.35724 25.6365 7.336C25.7348 7.336 26.7181 7.18753 26.7672 7.20866C26.8654 7.2299 26.8654 7.29352 26.8654 7.29352C26.8654 7.29352 26.4967 7.46312 25.6611 7.5055C24.8745 7.54787 23.9405 7.5055 23.4244 7.29352C22.8098 7.0603 23.2768 7.0603 23.2768 7.0603ZM31.6339 7.46323C31.7814 7.54798 32.74 7.86616 33.1579 8.24785C33.5266 8.58727 33.33 8.56603 33.2561 8.48118C33.1579 8.37508 32.3959 7.92977 32.1009 7.82378C31.806 7.71779 31.4372 7.52684 31.4372 7.48447C31.4372 7.44209 31.6339 7.46323 31.6339 7.46323Z" fill="#010101"/>
<path d="M23.1538 16.2642C23.8666 16.2218 24.604 16.3703 25.071 16.7944C25.3168 17.0065 25.7101 17.2397 25.661 17.4518C25.661 17.5154 25.5134 17.6851 25.3907 17.8123C25.317 17.8971 25.0958 18.0879 25.0219 18.1517C24.9237 18.2153 24.5795 18.4486 24.5058 18.491C24.4321 18.5335 24.3337 18.6395 24.26 18.6607C24.0143 18.7668 23.7439 18.6819 23.498 18.5759C23.2524 18.4698 23.5473 18.4486 23.2769 18.279C22.6133 17.8761 22.2445 17.6003 22.5149 16.8156C22.5394 16.6672 22.8097 16.4974 23.1538 16.2642Z" fill="#F0EFEF"/>
<path opacity="0.4" d="M16.8861 11.4078C14.6739 12.1713 9.0451 14.589 7.44751 15.3312C8.77479 16.0522 9.38926 17.7912 9.58596 19.5514C9.61046 19.7211 9.63507 19.8696 9.65969 20.0392C9.68419 20.1877 9.70881 20.2937 9.7333 20.3574C9.7333 20.3786 9.7333 20.421 9.75792 20.4421C11.2082 17.0278 16.3943 13.4226 16.591 13.1469C16.6893 13.0196 16.4681 12.4682 16.8122 11.9382C17.2547 11.2593 18.1151 10.9624 16.8861 11.4078ZM22.1461 27.4193C23.2767 25.4683 23.3013 23.602 23.2767 21.4176C23.2767 20.5056 24.0386 19.212 23.6455 19.5725C22.1706 20.9933 18.4592 23.6656 15.78 23.8139C19.5407 23.708 21.0154 25.3409 22.1461 27.4193Z" fill="#010101"/>
<path d="M5.28442 17.1337C6.68544 16.2642 13.9365 12.9348 15.6816 12.4681C17.4267 11.9803 16.8859 11.4077 16.8859 11.4077C16.8859 11.4077 9.80701 14.0374 5.57935 16.3066" fill="#010101"/>
<path opacity="0.4" d="M25.9313 11.0049C25.3659 10.814 24.9235 11.3867 25.071 11.9381C25.2186 12.4895 26.5458 13.1044 26.472 15.1191C26.4229 16.7734 26.005 17.4519 26.005 17.4519L25.071 16.434C25.071 16.434 24.9235 14.1436 24.604 13.8043C24.2845 13.4649 23.2767 12.8499 22.8834 12.5318C22.4901 12.2137 23.3258 11.7896 23.2767 11.1957C23.2276 10.6232 23.6946 9.47799 23.6946 9.47799L25.9313 11.0049ZM29.3479 20.0391C29.2988 21.6296 29.7166 23.9837 29.8886 25.1077C30.0607 26.2316 30.2819 26.3165 29.8886 26.8255C29.4953 27.3133 28.9792 28.1192 28.9792 28.1192L27.2832 27.9918C27.2832 27.9918 28.6351 26.5073 28.7087 26.2316C28.7824 25.956 28.0205 23.8565 28.0205 23.8565L29.3479 20.0391ZM26.0788 5.1941C26.423 5.85139 26.8408 6.14833 27.5043 6.33928C27.8976 6.46651 29.4461 6.63622 30.0607 6.04234C30.331 5.76664 30.1589 5.02439 30.1589 5.02439L28.7579 5.99986L26.8653 5.70303L26.6441 5.21524L26.0788 5.1941Z" fill="#010101"/>
<path d="M26.2264 6.65736C26.8654 7.01792 28.4632 7.35724 28.9055 7.42085C29.3479 7.5056 30.0608 7.01792 30.4049 6.89069C30.7737 6.74222 31.4128 6.65736 32.1501 7.23001C32.2238 7.29362 31.978 7.56932 31.978 7.56932C31.9534 7.54808 31.8059 7.54808 31.6092 7.46323C31.4127 7.37848 31.2406 7.31476 30.9457 7.336C29.7166 7.46323 29.52 7.82379 28.4385 7.61159C27.3571 7.3994 27.0866 7.2299 26.0298 7.27228" fill="#8AC640"/>
<path d="M26.2264 6.65736C26.8654 7.01792 28.4632 7.35724 28.9055 7.42085C29.3479 7.5056 30.0608 7.01792 30.4049 6.89069C30.7737 6.74222 31.4128 6.65736 32.1501 7.23001C32.2238 7.29362 31.978 7.56932 31.978 7.56932C31.9534 7.54808 31.8059 7.54808 31.6092 7.46323C31.4127 7.37848 31.2406 7.31476 30.9457 7.336C29.7166 7.46323 29.52 7.82379 28.4385 7.61159C27.3571 7.3994 27.0866 7.2299 26.0298 7.27228" stroke="#010101" stroke-miterlimit="10" stroke-linejoin="round"/>
<path d="M26.0052 6.72098C26.8163 7.01792 28.3894 7.336 28.8318 7.42085C29.2742 7.50571 29.987 7.12391 30.3312 6.93306C30.9458 6.59375 31.7322 6.86945 32.101 7.23001C32.3467 7.46323 32.4451 7.6117 32.4451 7.67531C32.4451 7.76006 32.1502 7.67531 32.1502 7.67531C31.9781 7.6117 31.7814 7.59056 31.6341 7.5056C31.4374 7.42085 31.2407 7.29362 30.9459 7.31476C29.7168 7.44209 29.471 7.80254 28.4142 7.59046C27.3573 7.37837 27.0869 7.18753 25.9563 7.25104" fill="#8AC640"/>
<path d="M22.1953 26.5285C22.1462 26.4861 22.2444 26.4437 22.1953 26.4437C21.8758 26.4437 21.4333 26.2316 21.1874 25.9347C20.1305 24.6199 18.5819 23.7504 15.7799 23.8141C11.5767 23.8988 9.9053 22.4144 9.58588 19.5726C9.4138 18.0245 8.92218 16.5188 7.91443 15.6704L7.32446 15.9886C8.45505 16.8369 8.82383 18.2154 9.06964 20.1028C9.46291 22.9446 12.1175 24.2595 15.2146 24.3018C18.4345 24.3442 19.5897 24.9169 20.794 26.3166C21.1873 26.7619 21.6298 26.9104 21.9738 26.974L22.1953 26.5285Z" fill="#010101"/>
<path opacity="0.4" d="M33.6002 12.8923C33.674 13.2104 33.8705 13.8254 34.2638 14.1222C34.436 14.2707 34.4605 14.3131 34.313 14.3131C34.1655 14.3131 33.084 14.2707 33.084 14.2707L32.7891 13.8254L33.6002 12.8923Z" fill="#010101"/>
</g>
<defs>
<clipPath id="clip0_1_681">
<rect width="38" height="38" fill="white"/>
</clipPath>
</defs>
</svg>
