<svg width="39" height="38" viewBox="0 0 39 38" fill="none" xmlns="http://www.w3.org/2000/svg">
<path d="M7.50864 32.3012L4.84033 2.375H34.1597L31.4878 32.2964L19.4822 35.625L7.50864 32.3012Z" fill="#E44F26"/>
<path d="M19.5 33.0814L29.2019 30.3917L31.4842 4.82243H19.5V33.0814Z" fill="#F1662A"/>
<path d="M19.5 15.9208H14.6431L14.3083 12.1624H19.5V8.49181H10.2969L10.3848 9.47744L11.2861 19.5914H19.5V15.9208ZM19.5 25.4529L19.4834 25.4576L15.396 24.3544L15.1348 21.4273H11.4499L11.9641 27.189L19.4834 29.2766L19.5 29.2719V25.4529Z" fill="#EBEBEB"/>
<path d="M19.4869 15.9208V19.5914H24.0066L23.5814 24.3521L19.4869 25.4564V29.2754L27.0121 27.189L27.0668 26.5691L27.9289 16.9064L28.0191 15.9208H19.4869ZM19.4869 8.49181V12.1624H28.3528L28.4264 11.3383L28.5939 9.47744L28.6818 8.49181H19.4869Z" fill="white"/>
</svg>
