<svg width="39" height="38" viewBox="0 0 39 38" fill="none" xmlns="http://www.w3.org/2000/svg">
<g clip-path="url(#clip0_1_621)">
<path d="M29.5938 0H9.40625C4.48746 0 0.5 3.98746 0.5 8.90625V29.0938C0.5 34.0125 4.48746 38 9.40625 38H29.5938C34.5125 38 38.5 34.0125 38.5 29.0938V8.90625C38.5 3.98746 34.5125 0 29.5938 0Z" fill="#F0DB4F"/>
<path d="M10.4916 31.7555L13.3995 29.9957C13.9606 30.9903 14.4709 31.832 15.6951 31.832C16.8685 31.832 17.6083 31.373 17.6083 29.5876V17.4457H21.1794V29.6381C21.1794 33.3367 19.0113 35.0203 15.8481 35.0203C12.9914 35.0203 11.3332 33.5408 10.4915 31.7552M23.119 31.3729L26.0266 29.6894C26.7921 30.9394 27.7869 31.8577 29.5468 31.8577C31.0266 31.8577 31.9701 31.1178 31.9701 30.0975C31.9701 28.8732 31.0008 28.4394 29.3683 27.7255L28.4757 27.3426C25.8993 26.246 24.1902 24.8685 24.1902 21.9606C24.1902 19.2822 26.2309 17.2415 29.4195 17.2415C31.6897 17.2415 33.3222 18.0323 34.4954 20.0984L31.715 21.884C31.1027 20.7872 30.4398 20.3536 29.4195 20.3536C28.3736 20.3536 27.7104 21.0168 27.7104 21.884C27.7104 22.9553 28.3736 23.389 29.904 24.0524L30.7967 24.4349C33.8321 25.7359 35.5412 27.0621 35.5412 30.0464C35.5412 33.2607 33.016 35.0206 29.6234 35.0206C26.3075 35.0206 24.1648 33.4391 23.119 31.3729Z" fill="#323330"/>
</g>
<defs>
<clipPath id="clip0_1_621">
<rect width="38" height="38" fill="white" transform="translate(0.5)"/>
</clipPath>
</defs>
</svg>
