<svg width="39" height="38" viewBox="0 0 39 38" fill="none" xmlns="http://www.w3.org/2000/svg">
<g clip-path="url(#clip0_1_653)">
<path d="M32.5285 25.8652C32.6891 25.7589 32.8225 25.6057 32.9156 25.4211C33.0086 25.2366 33.0578 25.027 33.0584 24.8135L33.0774 17.7693C33.078 17.5558 33.1273 17.3462 33.2203 17.1616C33.3133 16.9769 33.4468 16.8238 33.6074 16.7175L36.9187 14.5241C37.0792 14.4178 37.2611 14.362 37.4462 14.3623C37.6312 14.3627 37.813 14.4191 37.9732 14.526C38.1333 14.6329 38.2663 14.7865 38.3588 14.9714C38.4513 15.1563 38.5 15.3659 38.5 15.5793V28.386C38.5 28.6002 38.451 28.8105 38.358 28.9958C38.2649 29.1811 38.1311 29.3348 37.9701 29.4415L25.4731 37.7188C25.3135 37.8245 25.1326 37.8802 24.9485 37.8804C24.7644 37.8807 24.5835 37.8253 24.4237 37.72L14.6164 31.2514C14.4548 31.145 14.3205 30.9913 14.2271 30.8058C14.1336 30.6202 14.0843 30.4095 14.0843 30.195V23.7374C14.0843 23.7302 14.0917 23.7254 14.0981 23.7288C14.1033 23.7326 14.1107 23.7288 14.1107 23.7202V23.713C14.1107 23.7083 14.1128 23.7033 14.1171 23.7009L22.1944 18.3499C22.2019 18.3449 22.1986 18.3316 22.1901 18.3316C22.1879 18.3316 22.1857 18.3306 22.1841 18.3287C22.1826 18.3269 22.1817 18.3244 22.1817 18.3218L22.1976 11.9909C22.1983 11.7768 22.1501 11.5663 22.0577 11.3805C21.9654 11.1948 21.8322 11.0404 21.6716 10.933C21.511 10.8256 21.3287 10.7689 21.143 10.7687C20.9574 10.7685 20.7749 10.8248 20.6142 10.9319L14.6111 14.921C14.4508 15.0274 14.2692 15.0834 14.0843 15.0834C13.8995 15.0834 13.7178 15.0274 13.5576 14.921L7.53549 10.9225C7.37506 10.8159 7.19314 10.7599 7.008 10.76C6.82286 10.7602 6.64101 10.8164 6.4807 10.9232C6.32038 11.03 6.18725 11.1836 6.09465 11.3684C6.00205 11.5533 5.95326 11.763 5.95315 11.9765V23.4186C5.95329 23.6319 5.90483 23.8415 5.81264 24.0263C5.72044 24.2112 5.58775 24.3649 5.42783 24.472C5.26792 24.5792 5.08641 24.636 4.90147 24.6367C4.71653 24.6375 4.53466 24.5822 4.37407 24.4765L1.032 22.2728C0.870168 22.1662 0.735696 22.0121 0.642253 21.8262C0.548811 21.6402 0.499731 21.429 0.500001 21.2141L0.529689 1.21448C0.530162 1.00134 0.579161 0.792082 0.671784 0.607636C0.764407 0.42319 0.897406 0.270023 1.05748 0.163458C1.21755 0.0568928 1.39908 0.000665429 1.58391 0.000400483C1.76874 0.000135537 1.9504 0.0558423 2.1107 0.161948L13.5586 7.7438C13.7186 7.84975 13.8999 7.9055 14.0843 7.9055C14.2688 7.9055 14.4501 7.84975 14.61 7.7438L26.0546 0.161606C26.2151 0.0552497 26.3971 -0.000530457 26.5823 -0.000135244C26.7674 0.00025997 26.9493 0.0568166 27.1095 0.163857C27.2697 0.270898 27.4027 0.424656 27.4951 0.609698C27.5875 0.794739 27.636 1.00455 27.6359 1.21807V21.2223C27.636 21.4363 27.5871 21.6466 27.4943 21.8319C27.4015 22.0172 27.2679 22.171 27.1071 22.2778L21.1135 26.2582C20.9525 26.3652 20.8189 26.5193 20.7261 26.705C20.6333 26.8906 20.5846 27.1012 20.5851 27.3155C20.5855 27.5298 20.635 27.7402 20.7285 27.9253C20.822 28.1105 20.9563 28.2639 21.1177 28.3701L24.4238 30.5406C24.5836 30.6454 24.7643 30.7003 24.9482 30.6999C25.132 30.6994 25.3126 30.6436 25.4719 30.538L32.5285 25.8652ZM33.222 7.92045C33.2221 8.13573 33.2718 8.34712 33.3659 8.53306C33.46 8.71899 33.5952 8.87282 33.7576 8.97886C33.9201 9.0849 34.104 9.13936 34.2907 9.13667C34.4774 9.13398 34.6601 9.07425 34.8202 8.96357L37.987 6.77258C38.1433 6.66457 38.2727 6.51172 38.3626 6.32893C38.4525 6.14613 38.4999 5.93961 38.5 5.72946V1.26446C38.4997 1.04928 38.4499 0.838048 38.3557 0.65228C38.2616 0.466512 38.1264 0.31285 37.9639 0.206953C37.8015 0.101055 37.6176 0.046707 37.431 0.0494456C37.2444 0.0521843 37.0618 0.111912 36.9018 0.222543L33.7352 2.41353C33.5788 2.52154 33.4493 2.6744 33.3594 2.85723C33.2695 3.04006 33.2221 3.24663 33.222 3.45682V7.92165V7.92045Z" fill="#007FFF"/>
</g>
<defs>
<clipPath id="clip0_1_653">
<rect width="38" height="38" fill="white" transform="translate(0.5)"/>
</clipPath>
</defs>
</svg>
