<svg width="39" height="38" viewBox="0 0 39 38" fill="none" xmlns="http://www.w3.org/2000/svg">
<g clip-path="url(#clip0_1_631)">
<path d="M31.7436 12.304C31.3392 12.1482 30.9313 12.0039 30.5204 11.8711C30.5895 11.5545 30.653 11.2416 30.7094 10.9343C31.6354 5.88747 31.03 1.82164 28.9624 0.482971C26.9801 -0.800362 23.738 0.537804 20.4638 3.7373C20.1411 4.05319 19.8256 4.37819 19.5175 4.71197C19.3113 4.49002 19.1014 4.27237 18.888 4.05914C15.4564 0.638138 12.0168 -0.803696 9.95146 0.538804C7.97086 1.82614 7.38438 5.6483 8.21801 10.4313C8.30094 10.905 8.39459 11.3763 8.49885 11.8446C8.01198 12 7.54217 12.1653 7.09255 12.3413C3.0693 13.9163 0.5 16.3845 0.5 18.9446C0.5 21.5888 3.25827 24.241 7.44866 25.8491C7.78838 25.979 8.13093 26.0993 8.47599 26.21C8.36393 26.7144 8.26443 27.2223 8.17763 27.733C7.3829 32.433 8.00352 36.1648 9.97877 37.444C12.0189 38.765 15.4431 37.4073 18.7771 34.1348C19.0475 33.8688 19.3119 33.5952 19.5701 33.3143C19.9037 33.6757 20.2462 34.0266 20.5972 34.3666C23.827 37.487 27.0166 38.747 28.9899 37.4643C31.0281 36.1395 31.6906 32.1305 30.8305 27.253C30.7628 26.8709 30.6868 26.4906 30.6027 26.1126C30.8431 26.0326 31.0792 25.9503 31.3092 25.8646C35.6656 24.2441 38.5 21.6241 38.5 18.9446C38.5 16.3751 35.8477 13.8903 31.7436 12.304ZM30.7988 24.1346C30.591 24.2118 30.3778 24.2863 30.1605 24.3588C29.6795 22.6493 29.0306 20.8316 28.2363 18.9535C28.9942 17.1201 29.6182 15.3256 30.0857 13.6273C30.4744 13.7536 30.8516 13.8868 31.2153 14.0273C34.7318 15.3866 36.8767 17.3961 36.8767 18.9446C36.8767 20.594 34.5602 22.7351 30.7988 24.1346ZM29.2381 27.607C29.6184 29.7636 29.6726 31.7136 29.4207 33.2381C29.1945 34.608 28.7393 35.5211 28.1765 35.887C26.979 36.6653 24.418 35.6536 21.6561 32.985C21.3295 32.6689 21.0109 32.3426 20.7006 32.0066C21.7714 30.6918 22.8415 29.1633 23.8859 27.4656C25.7229 27.2826 27.4585 26.9833 29.0324 26.5748C29.1082 26.917 29.1768 27.2611 29.2381 27.607ZM13.455 35.7525C12.285 36.2163 11.3532 36.2296 10.7898 35.865C9.5912 35.0888 9.0929 32.0923 9.77259 28.073C9.85339 27.598 9.9459 27.1257 10.05 26.6565C11.6065 27.0431 13.3295 27.3211 15.1708 27.4888C16.2224 29.15 17.3233 30.6768 18.4329 32.0138C18.1971 32.27 17.9557 32.5196 17.709 32.7625C16.2345 34.2095 14.7571 35.2361 13.455 35.7525ZM7.97383 24.1245C6.12088 23.4133 4.59064 22.4891 3.54178 21.4806C2.5992 20.5745 2.12346 19.6746 2.12346 18.9446C2.12346 17.391 4.1863 15.4093 7.62693 14.0625C8.04448 13.8991 8.48148 13.745 8.93496 13.6003C9.41055 15.337 10.0343 17.1528 10.787 18.989C10.0245 20.8523 9.39185 22.6971 8.91166 24.4543C8.59669 24.353 8.28398 24.243 7.97383 24.1245ZM9.81119 10.0811C9.09705 5.9833 9.57131 2.89214 10.7649 2.1163C12.0361 1.28997 14.8472 2.46814 17.8102 5.42214C18.0034 5.6152 18.1935 5.81218 18.3803 6.01297C17.2763 7.34414 16.1854 8.85964 15.1432 10.511C13.356 10.697 11.6453 10.9956 10.0724 11.3958C9.97553 10.9602 9.88842 10.5217 9.81119 10.0811ZM26.2027 14.626C25.8312 13.9055 25.4459 13.194 25.0471 12.4921C26.2595 12.6643 27.4212 12.8928 28.5121 13.1721C28.1846 14.3508 27.7764 15.583 27.2959 16.8463C26.9447 16.0981 26.5802 15.3578 26.2027 14.626ZM19.5183 7.3158C20.267 8.22664 21.0169 9.24347 21.7545 10.3468C20.2582 10.2675 18.7595 10.2671 17.2632 10.3458C18.0015 9.25264 18.7578 8.23714 19.5183 7.3158ZM12.7909 14.6383C12.4181 15.3643 12.0604 16.0999 11.7182 16.8446C11.2455 15.5858 10.841 14.348 10.5108 13.1526C11.595 12.8803 12.7511 12.6576 13.9559 12.4886C13.5526 13.1948 13.1642 13.9117 12.7909 14.6383ZM13.9904 25.5303C12.7458 25.3743 11.5723 25.1631 10.4884 24.8981C10.8238 23.6815 11.2372 22.4173 11.7201 21.1315C12.0637 21.8767 12.4229 22.6128 12.7973 23.3391C13.1824 24.0858 13.5811 24.8171 13.9904 25.5303ZM19.5631 30.702C18.7936 29.77 18.0262 28.7388 17.2767 27.6298C18.0043 27.6618 18.7461 27.6781 19.5 27.6781C20.2745 27.6781 21.0402 27.6586 21.7938 27.621C21.0538 28.75 20.3068 29.7826 19.5631 30.702ZM27.3112 21.0658C27.8192 22.3658 28.2473 23.6233 28.5872 24.8191C27.4855 25.1015 26.2959 25.3288 25.0425 25.4976C25.4441 24.7827 25.8331 24.0589 26.2091 23.3266C26.5914 22.5823 26.9588 21.8285 27.3112 21.0658ZM24.8029 22.416C24.2273 23.5387 23.6193 24.6401 22.98 25.7185C21.8218 25.8106 20.6611 25.8563 19.5 25.8556C18.3174 25.8556 17.1672 25.8143 16.0595 25.7336C15.4035 24.6578 14.7839 23.5544 14.2021 22.426C13.6231 21.3035 13.0824 20.1567 12.5809 18.9881C13.0811 17.8193 13.6203 16.672 14.1974 15.5486L14.1972 15.5488C14.774 14.4252 15.3887 13.3265 16.0398 12.2553C17.1698 12.1593 18.3287 12.1093 19.4999 12.1093C20.6764 12.1093 21.8369 12.1598 22.9666 12.2565C23.6111 13.3261 24.2218 14.421 24.7976 15.539C25.3766 16.6598 25.9229 17.8016 26.4357 18.9623C25.9282 20.1349 25.3835 21.2869 24.8029 22.416ZM28.1517 2.06197C29.4241 2.88597 29.919 6.2088 29.1195 10.5663C29.0684 10.8443 29.0111 11.1275 28.9488 11.4146C27.3721 11.006 25.6602 10.7021 23.8678 10.5133C22.8237 8.8438 21.7417 7.32597 20.6556 6.01197C20.9402 5.70389 21.2317 5.4038 21.5296 5.11197C24.3351 2.3708 26.9571 1.28847 28.1517 2.06197ZM19.5 15.1346C21.374 15.1346 22.8933 16.8405 22.8933 18.9446C22.8933 21.0488 21.374 22.7546 19.5 22.7546C17.626 22.7546 16.1067 21.0488 16.1067 18.9446C16.1067 16.8405 17.626 15.1346 19.5 15.1346Z" fill="#00D8FF"/>
</g>
<defs>
<clipPath id="clip0_1_631">
<rect width="38" height="38" fill="white" transform="translate(0.5)"/>
</clipPath>
</defs>
</svg>
