<svg width="39" height="38" viewBox="0 0 39 38" fill="none" xmlns="http://www.w3.org/2000/svg">
<g clip-path="url(#clip0_1_641)">
<path d="M26.8299 26.1577C24.158 31.6202 19.4793 35.2955 13.2894 36.5037C12.3404 36.7364 11.3661 36.85 10.3889 36.8422C6.82644 36.8422 3.56082 35.3578 1.97551 32.9264C-0.153087 29.6875 -0.877461 22.8208 6.14066 17.7412C6.28316 18.5161 6.5741 19.5789 6.76707 20.2083C5.38937 21.2318 4.26167 22.5544 3.46879 24.0766C2.16254 26.6416 2.30801 29.2036 3.85473 31.5727C4.92348 33.1698 6.61566 34.1406 8.79176 34.4375C11.5098 34.7815 14.2671 34.2622 16.6738 32.9531C20.4471 30.97 22.9616 28.6009 24.6063 25.362C24.1412 24.8814 23.866 24.2487 23.8314 23.5808C23.8066 22.8641 24.0671 22.1668 24.5558 21.6419C25.0444 21.1171 25.7214 20.8076 26.438 20.7813H26.5389C27.236 20.7778 27.9077 21.0424 28.4151 21.5203C28.9225 21.9983 29.2268 22.653 29.2649 23.349C29.303 24.045 29.0721 24.7291 28.62 25.2596C28.1679 25.7901 27.5291 26.1265 26.8358 26.1992L26.8299 26.1577ZM35.3413 20.1608C38.9661 24.2695 39.0641 29.1056 37.6629 31.9111C36.3566 34.4731 32.9129 37.0381 28.2816 37.0381C26.1197 36.9938 23.9929 36.4824 22.0472 35.5389C22.7271 35.055 23.6919 34.2802 24.2233 33.7962C25.7236 34.4465 27.3383 34.7917 28.9733 34.8116C31.9718 34.8116 34.2429 33.4103 35.5966 30.8483C36.4664 29.1561 36.5169 27.173 35.6946 25.1423C34.6857 22.5873 32.8901 20.4195 30.5675 18.9525C27.5206 16.8986 23.9287 15.8036 20.2541 15.8086H19.3843C19.1814 16.2771 18.8514 16.6795 18.4317 16.9702C18.012 17.2609 17.5192 17.4282 17.0093 17.4533H16.9172C16.2119 17.4446 15.5377 17.1613 15.0379 16.6636C14.5381 16.1658 14.252 15.4929 14.2404 14.7876C14.2288 14.0823 14.4927 13.4003 14.9758 12.8864C15.459 12.3725 16.1235 12.0672 16.8282 12.0353H16.9261C17.4172 12.0357 17.8986 12.1714 18.3176 12.4275C18.7366 12.6836 19.0769 13.0502 19.3011 13.487H20.076C26.251 13.487 31.6719 15.8561 35.3413 20.1608ZM10.7749 26.9889C10.7238 26.4959 10.8433 26.0003 11.1133 25.5847C8.40582 20.8941 6.95707 14.9477 9.18066 8.75781C10.7749 4.10578 14.7886 0.961876 19.1408 0.961876C23.7839 0.961876 28.62 5.02609 29.1989 12.8577C28.4746 12.6172 27.4177 12.2639 26.7824 12.1333C26.625 9.57125 24.4608 3.18844 19.3338 3.28344C17.4961 3.33391 14.7886 4.20375 13.3963 5.99094C11.6742 8.12445 10.6723 10.7487 10.5344 13.487C10.2079 17.2418 11.0888 21.0028 13.0489 24.222C13.1571 24.1825 13.2725 24.1663 13.3874 24.1745H13.4824C14.2005 24.1615 14.8943 24.4343 15.4112 24.9329C15.9282 25.4315 16.2259 26.115 16.2389 26.833C16.2519 27.5511 15.9791 28.2449 15.4805 28.7619C14.9819 29.2788 14.2984 29.5765 13.5804 29.5895H13.4824C12.7818 29.587 12.1093 29.3143 11.6049 28.8282C11.1005 28.342 10.8032 27.68 10.7749 26.98V26.9889Z" fill="#764ABC"/>
</g>
<defs>
<clipPath id="clip0_1_641">
<rect width="38" height="38" fill="white" transform="translate(0.5)"/>
</clipPath>
</defs>
</svg>
