<svg width="39" height="38" viewBox="0 0 39 38" fill="none" xmlns="http://www.w3.org/2000/svg">
<g clip-path="url(#clip0_1_627)">
<path fill-rule="evenodd" clip-rule="evenodd" d="M0.861938 16.6713C0.861938 16.88 0.923392 17.0178 0.957829 17.1517C1.18227 18.0224 1.66469 18.7696 2.23706 19.4512C3.05228 20.4226 4.05067 21.2046 5.07341 21.94C5.96047 22.5776 6.86564 23.2011 7.75627 23.834C7.90916 23.9427 8.05374 24.0677 8.21969 24.201C8.07689 24.2781 7.95814 24.3461 7.83464 24.4088C6.65931 25.0049 5.52852 25.6732 4.48619 26.4827C3.858 26.9708 3.25059 27.4894 2.82161 28.1672C2.13138 29.2573 1.88705 30.4187 2.40153 31.6588C2.55175 32.0209 2.78094 32.3338 3.10424 32.5651C3.20903 32.6399 3.32659 32.7141 3.4492 32.7432C3.7633 32.8172 4.08333 32.8655 4.40128 32.924L5.3017 32.9234C6.29742 32.8347 7.20378 32.4936 8.02286 31.9283C9.30299 31.0448 10.1654 29.8603 10.5362 28.34C10.8058 27.235 10.8168 26.1289 10.4991 25.0289C10.4686 24.9271 10.4335 24.8266 10.394 24.7279C10.3554 24.629 10.31 24.5329 10.2565 24.4097L12.2979 23.2358L12.3284 23.2619C12.2913 23.3834 12.2518 23.5045 12.2183 23.6271C11.9758 24.513 11.8145 25.4143 11.8724 26.3337C11.9342 27.3134 12.2076 28.2304 12.7812 29.0489C13.2449 29.711 14.3499 29.7356 14.8427 29.0712C15.0175 28.8352 15.187 28.5885 15.3144 28.3251C15.6472 27.6379 15.9554 26.9384 16.2733 26.2437L16.3288 26.1167C16.306 26.4456 16.2793 26.7345 16.2671 27.0236C16.2481 27.4752 16.2745 27.9241 16.4289 28.3536C16.561 28.7212 16.7857 28.9958 17.2067 29.0442C17.4947 29.0771 17.7241 28.9453 17.9358 28.7782C18.2636 28.5189 18.5354 28.1958 18.7347 27.8285C19.2991 26.7921 19.8786 25.7619 20.3901 24.6994C20.9435 23.5502 21.4274 22.3675 21.9412 21.1987L22.0262 20.9914C22.1476 21.4685 22.2322 21.9358 22.388 22.3781C22.5691 22.8914 22.7933 23.3926 23.0373 23.8797C23.1528 24.1098 23.1394 24.2591 22.9794 24.4521C22.3097 25.2596 21.6515 26.0769 20.9927 26.8933C20.847 27.0735 20.7018 27.257 20.5804 27.4538C20.5067 27.5781 20.4583 27.7157 20.4379 27.8587C20.4174 27.9904 20.4488 28.1249 20.5253 28.234C20.6019 28.3431 20.7177 28.4183 20.8485 28.4439C21.1124 28.5006 21.3831 28.5199 21.6524 28.5012C22.5718 28.4335 23.4066 28.1108 24.1447 27.564C25.1009 26.8556 25.4079 25.889 25.1763 24.7433C25.1137 24.4325 25.0029 24.1303 24.8952 23.8308C24.8468 23.6957 24.8435 23.601 24.9317 23.4751C25.6961 22.3835 26.3492 21.2254 26.9567 20.0405C26.9807 19.9939 27.0053 19.9473 27.0475 19.8975C27.2443 20.9217 27.5406 21.9088 28.0714 22.8045C27.8007 23.0654 27.5326 23.302 27.29 23.5627C26.756 24.1368 26.2928 24.7603 26.0512 25.5206C25.9473 25.8483 25.8674 26.1814 25.9137 26.5314C25.9856 27.075 26.4309 27.4283 26.9656 27.3045C28.1097 27.0397 29.0974 26.5005 29.8191 25.5455C30.3048 24.9025 30.349 24.1852 30.1457 23.4338C30.0899 23.2296 30.0237 23.0286 29.9524 22.7944C30.2348 22.7068 30.51 22.6017 30.7947 22.5367C32.2728 22.1994 33.7349 22.2582 35.1593 22.792C35.9909 23.1037 36.6627 23.6253 37.0611 24.4459C37.5477 25.449 37.2787 26.4008 36.3332 27.0349C36.245 27.094 36.144 27.1406 36.071 27.2145C36.0476 27.2417 36.0302 27.2733 36.0197 27.3076C36.0092 27.3418 36.006 27.3779 36.0102 27.4134C36.0164 27.45 36.1129 27.4957 36.1684 27.4951C36.4792 27.4927 36.7313 27.3297 36.9732 27.1623C37.5794 26.7428 38.0218 26.1784 38.1171 25.4354L38.1358 25.3795L38.1129 24.8956C38.1037 24.8677 38.1198 24.8401 38.1177 24.819C37.9888 23.7369 37.4108 22.8977 36.5701 22.2398C35.5963 21.4783 34.4465 21.1648 33.2305 21.1152C32.2443 21.0728 31.2593 21.2244 30.3315 21.5614C30.0652 21.6579 29.8013 21.7722 29.5335 21.88C29.4976 21.815 29.459 21.7526 29.4273 21.6882C29.1523 21.1253 28.8193 20.5874 28.7456 19.942C28.6934 19.4836 28.6292 19.0258 28.7382 18.5725C28.843 18.1364 28.9796 17.7077 29.1081 17.2775C29.1743 17.0561 29.1277 16.932 28.9163 16.8322C28.8425 16.796 28.7639 16.7703 28.683 16.7556C28.1635 16.6802 27.651 16.7233 27.1478 16.8696C26.9697 16.9216 26.8403 17.0213 26.8008 17.2185C26.7782 17.3316 26.7322 17.4399 26.7002 17.5515C26.5686 18.0156 26.4754 18.4885 26.2629 18.9305C25.7303 20.0394 25.1223 21.1063 24.5 22.1656C24.4326 22.2799 24.3617 22.3921 24.2768 22.5307C24.0583 22.0735 23.8252 21.6633 23.7546 21.1823C23.6747 20.6385 23.6118 20.0955 23.7471 19.5558C23.8478 19.1532 23.9793 18.758 24.1004 18.3608C24.1577 18.172 24.1313 18.0729 23.9603 17.9734C23.8739 17.9232 23.7762 17.8787 23.6789 17.8642C23.1461 17.783 22.6018 17.8275 22.0894 17.9942C21.9282 18.0464 21.8436 18.1506 21.7943 18.3169C21.6494 18.8073 21.5259 19.3096 21.3226 19.776C20.499 21.6642 19.6518 23.5425 18.8054 25.4205C18.6287 25.8127 18.4218 26.1912 18.2226 26.573C18.1721 26.6698 18.0985 26.755 18.0356 26.8458C17.9851 26.7861 17.9655 26.7452 17.9658 26.7042C17.9673 26.4628 17.9385 26.2144 17.9845 25.981C18.1258 25.2753 18.282 24.5726 18.453 23.8735C18.5925 23.2958 18.7549 22.7234 18.9096 22.1495C18.9615 21.9575 18.9624 21.7779 18.8244 21.6164C18.5925 21.3459 18.108 21.2865 17.8206 21.4949L17.6936 21.5668L17.7182 21.3619C17.7788 20.9229 17.7909 20.4853 17.6704 20.0527C17.5202 19.5136 17.1354 19.2034 16.5761 19.2206C16.3155 19.2286 16.0417 19.2731 15.8004 19.3681C14.7854 19.7659 14.0049 20.4704 13.3405 21.318C13.2788 21.3967 13.2025 21.4626 13.1158 21.5122C12.2569 21.9883 11.3954 22.4586 10.5341 22.9306L9.57552 23.4558C9.31842 23.2106 9.08478 22.9562 8.81967 22.7403C8.01009 22.0801 7.18745 21.4362 6.37224 20.7833C5.64964 20.2047 4.94961 19.6021 4.41405 18.8358C4.01564 18.2658 3.75884 17.6421 3.7342 16.9373C3.70303 16.0393 3.95775 15.2187 4.41494 14.4548C4.99978 13.4775 5.79749 12.6932 6.67445 11.9828C7.60219 11.2317 8.60563 10.594 9.64558 10.0118C11.1006 9.19748 12.5971 8.47667 14.2017 8.00078C15.847 7.51272 17.5163 7.23336 19.2382 7.42811C19.9151 7.5047 20.5724 7.65967 21.1759 7.99069C21.6381 8.24392 22.0173 8.57553 22.1936 9.09387C22.3676 9.60391 22.3622 10.1208 22.2417 10.6388C21.9968 11.688 21.4223 12.5528 20.6994 13.3255C19.5137 14.5923 18.0673 15.4547 16.439 16.0244C15.5027 16.3523 14.5286 16.5601 13.54 16.6428C12.7298 16.7108 11.9366 16.639 11.1694 16.3572C10.6615 16.1705 10.2191 15.8849 9.86349 15.4705C9.79995 15.3962 9.71861 15.3158 9.60016 15.3853C9.48408 15.4535 9.46359 15.564 9.50249 15.6759C9.5675 15.8617 9.62747 16.0553 9.7287 16.2215C9.98313 16.6387 10.3542 16.9412 10.7627 17.2006C11.5474 17.6997 12.4243 17.8674 13.3337 17.9063C14.7135 17.966 16.0599 17.76 17.3872 17.3898C19.2821 16.8613 20.9298 15.9279 22.2512 14.4554C23.3514 13.2293 24.1372 11.8456 24.3056 10.1748C24.3878 9.35928 24.3002 8.56039 23.9184 7.81642C23.5043 7.01041 22.8458 6.41102 22.0585 5.99806C20.912 5.39689 19.6746 5.04688 18.3975 5.04688H17.1179C15.5712 5.04688 14.0758 5.49011 12.6223 6.01884C11.5221 6.41933 10.4433 6.89195 9.39591 7.41505C7.11502 8.55475 4.99088 9.92898 3.24614 11.8186C2.37689 12.76 1.64094 13.7987 1.21759 15.0219C1.09004 15.3871 0.979973 15.7582 0.887767 16.134M9.15247 26.8253C9.05361 28.1491 8.45363 29.2223 7.47305 30.0915C6.92145 30.5802 6.28881 30.9281 5.55197 31.0505C5.28478 31.0947 5.01136 31.1054 4.75219 30.9946C4.38258 30.8367 4.29975 30.5087 4.29263 30.1592C4.28164 29.6023 4.47669 29.0988 4.74417 28.6196C5.0933 27.995 5.60511 27.5188 6.15166 27.0741C7.0126 26.3732 7.94656 25.78 8.9031 25.2201L8.97524 25.1904C9.12308 25.7367 9.19344 26.2761 9.15247 26.8253ZM16.6213 21.0722C16.5515 21.4949 16.4642 21.918 16.3407 22.3277C15.9138 23.7458 15.3655 25.1201 14.7726 26.4759C14.6631 26.7268 14.5036 26.9557 14.365 27.1935C14.3414 27.23 14.3131 27.2633 14.281 27.2926C14.1094 27.4621 13.9467 27.4532 13.86 27.2315C13.7591 26.9738 13.697 26.698 13.6436 26.4251C13.6077 26.242 13.6163 26.0496 13.605 25.862C13.6166 24.5278 14.0236 23.3154 14.7141 22.1867C14.9988 21.7212 15.3088 21.2776 15.7823 20.9831C15.9296 20.8916 16.089 20.8211 16.2558 20.7735C16.5081 20.7026 16.6631 20.8193 16.6213 21.0722ZM21.7168 27.5642L23.5482 25.4259C23.6245 26.22 22.2746 27.8053 21.7168 27.5642ZM27.5661 26.1253C27.4367 26.1995 27.2957 26.253 27.163 26.3215C27.0416 26.3845 27.0015 26.3209 26.9979 26.2164C26.9962 26.1441 27.0055 26.0719 27.0255 26.0024C27.2728 25.1302 27.7279 24.3856 28.4051 23.78L28.4526 23.7556C28.7747 24.6567 28.4024 25.6461 27.5661 26.1253Z" fill="#CB6699"/>
</g>
<defs>
<clipPath id="clip0_1_627">
<rect width="38" height="38" fill="white" transform="translate(0.5)"/>
</clipPath>
</defs>
</svg>
